<svg  aria-label="owl" style="height: 100%; width: 100%;" role="img" width="512" height="512" xmlns="http://www.w3.org/2000/svg">
   <path fill="#101010" d="m310.58,427.93l-4.79,0l-38.43,61.92l33.91,0l0,18.15l-139.5,0l0,-18.15l58.78,0l26.33,-66.19c-54.79,-7.47 -98.28,-27.22 -128.87,-62.67l-5.32,30.43c-31.25,-20.5 -50.54,-52.63 -45.08,-108.57l-15.29,55.3s-43.15,-27.44 -16.89,-105.8c-61.59,-100.14 -46.12,-229.85 92.96,-229.85c183.39,0 115.17,163.13 145.22,203.16l37.77,31.17c-18.75,-11 -36.84,-18.15 -53.46,-22.1c-48.14,-11.53 -87.24,1.71 -107.85,26.37c-20.21,24.02 -23.01,59.89 2.93,96.08c23.94,33.2 73.28,67.26 157.59,90.74zm116.54,-0.93c-151.47,-16.01 -218.8,-57.36 -250.06,-100.91c-19.68,-27.33 -19.28,-54.34 -3.99,-72.49c14.63,-17.51 42.82,-25.73 77,-17.62c56.92,13.56 114.41,66.86 177.05,191.02zm-46.05,-132.41l127.93,105.9c-16.49,3.74 -32.71,7.15 -48.41,10.36c-25.53,-48.9 -52.53,-87.01 -79.53,-116.26zm-249.62,-237.22c-20.35,-16.44 -38.83,-21.46 -53.73,-19.86c-17.95,1.92 -32.57,13.56 -40.92,30.75c-22.2,45.8 0.28,131.1 94.65,131.1c94.42,0 117.97,-86.3 94.69,-131.1c-23.28,-44.8 -23.01,-28.82 -40.96,-30.75c-14.9,-1.6 -33.38,3.42 -53.73,19.86zm-8.51,19l8.51,8.01l8.51,-8.01c16.62,-15.8 30.32,-22.53 42.29,-21.24c10.77,1.17 18.22,9.18 23.27,19.64c17.82,36.94 2.13,106.76 -74.07,106.76c-76.2,0 -91.89,-69.82 -73.94,-106.76c4.92,-10.46 12.37,-18.47 23.14,-19.64c11.97,-1.28 25.8,5.44 42.29,21.24zm-55.06,26.48l20.48,4.59l30.32,59.78l25.8,-0.53l26.07,-59.04l22.34,-7.15l-10.37,-20.71l-33.91,11l-18.09,40.89l-21.54,-42.7l-33.65,-7.58l-7.45,21.46z"/>
</svg>